<svg xmlns="http://www.w3.org/2000/svg" width="24" height="24" viewBox="0 0 512 514" fill="currentColor"><path d="M503.16 323.56C514.55 281.47 515.32 235.91 503.2 190.76C466.57 54.2 326.04 -26.8 189.33 9.78C106.07 32.01 39.43 93.6 13.08 173.54C6.49 189.86 3.2 207.38 0 225.72L48.41 233.36C51.2 217.13 54.09 202.36 59.65 188.28C79.84 124.74 133.16 72.81 198.04 54.51C318.05 22.11 440.41 96.16 471.69 214.01C481.7 251.89 481.37 290.89 471.1 327.89C471.1 328.6 470.4 329.31 470.4 330.02H519.45C520.85 327.89 522.26 325.73 503.16 323.56Z"/><path d="M321.39 504.64C208.38 535.96 91.04 476.71 52.53 370.5L4.83 378.84C45.78 497.63 171.48 567.36 294.49 534.66C327.99 525.75 358.4 510.04 383.72 489.14L349.82 454.07C341.21 462.65 332.34 470.58 321.39 504.64Z"/><path d="M448.93 405.15L404.81 383.55C393.67 405.52 377.64 424.8 357.33 439.4L381.28 465.95C409.5 448.95 433.35 428.64 448.93 405.15Z"/><path d="M260.49 364.77C224.42 364.77 195.1 335.44 195.1 299.37C195.1 263.3 224.42 233.98 260.49 233.98C278.47 233.98 294.43 241.3 306.07 252.93L341.96 216.65C320.37 194.73 290.01 181.34 256.42 181.34C192.98 181.34 141.02 233.3 141.02 296.74C141.02 360.18 192.98 412.14 256.42 412.14C283.42 412.14 307.79 402.82 326.82 386.86L295.39 356.46C283.96 362.36 272.69 364.77 260.49 364.77Z"/></svg>
